<svg width="42" height="56" viewBox="0 0 42 56" fill="none" xmlns="http://www.w3.org/2000/svg">
<path fill-rule="evenodd" clip-rule="evenodd" d="M7.49576 0H21.4958C27.1565 0 31.7625 4.606 31.7625 10.2666V10.2667V14.9333C33.8214 14.9333 35.4958 16.6078 35.4958 18.6667C35.4958 20.7256 33.8214 22.4 31.7625 22.4H31.55C31.2613 26.0674 29.1975 29.2747 26.1623 31.101V32.6667H29.1118C31.6029 32.6667 33.6292 34.693 33.6291 37.1842C33.6298 37.2541 33.6289 37.3238 33.6263 37.3934L33.7476 37.4014C37.9636 37.9624 41.0958 41.5427 41.0959 45.7333V56H39.2292V45.7334C39.2292 42.4733 36.7932 39.6891 33.561 39.258L33.1563 39.2323C33.0733 39.3986 32.9798 39.5606 32.8759 39.7172L28.0291 46.9513V56H26.1623V42.9565C24.5585 44.1449 22.6053 44.8 20.5625 44.8C18.5193 44.8 16.5662 44.1451 14.9625 42.9571V56H13.0958V46.9507L8.25099 39.7198C8.14638 39.5623 8.05226 39.3996 7.96886 39.2326L7.50232 39.2634C4.33176 39.689 1.89576 42.4732 1.89576 45.7333V56H0.0290527V45.7333C0.0290527 41.5426 3.16133 37.9633 7.31649 37.407L7.49822 37.3946C7.49539 37.3215 7.49431 37.2481 7.49499 37.1746C7.49499 34.6929 9.52116 32.6666 12.0123 32.6666H14.9625V31.1315C12.2932 29.5509 10.3029 26.8626 9.72001 23.577C9.66215 23.2503 9.61829 22.9208 9.59029 22.5904L9.57561 22.4H9.36246C7.30347 22.4 5.62916 20.7255 5.62916 18.6666C5.62916 16.6077 7.30347 14.9333 9.36246 14.9333H9.36387L9.36255 10.5691C7.15705 9.51877 5.62916 7.26788 5.62916 4.66659C5.62916 4.15144 6.0473 3.7333 6.56246 3.7333H7.06362C6.74446 3.18358 6.56246 2.54603 6.56246 1.86659V0.933297C6.56246 0.418141 6.9806 0 7.49576 0ZM26.1623 35.672V34.5334H29.1118C30.5733 34.5334 31.7625 35.7234 31.7625 37.1934C31.768 37.7264 31.615 38.2415 31.3229 38.6811L28.0291 43.5973V37.5387C28.0292 37.0226 27.6119 36.6053 27.0958 36.6053H26.9371C26.4891 36.5287 26.1586 36.1377 26.1623 35.672ZM22.5133 32.4996C23.1282 32.3806 23.7236 32.2126 24.2956 32V35.6636C24.2863 36.8807 25.0563 37.9363 26.1623 38.3254V40.4479C24.7314 42.032 22.7086 42.9333 20.5625 42.9333C18.4163 42.9333 16.3935 42.0319 14.9625 40.4494V38.3264C16.0676 37.9373 16.8375 36.8826 16.8292 35.672V32.0136C18.0092 32.4416 19.2729 32.6723 20.5728 32.6723C21.2121 32.6723 21.8618 32.6153 22.5133 32.4996ZM13.0958 37.5387V43.5959L9.80401 38.6829C9.51001 38.2414 9.35699 37.7253 9.36257 37.1839C9.36246 35.7224 10.5515 34.5333 12.0132 34.5333H14.9625V35.6786C14.9653 36.1377 14.6358 36.5288 14.1878 36.6054H14.0291C13.5139 36.6054 13.0958 37.0226 13.0958 37.5387ZM28.1286 11.1999H29.896L29.8969 14.0611C29.1833 13.4162 28.4004 12.4564 28.1286 11.1999ZM26.2295 11.1999C26.6437 14.0413 28.8703 15.7542 29.8976 16.4045L29.8986 19.5273L29.7016 22.0715C29.4422 26.3238 26.3398 29.8584 22.1725 30.6647C17.2034 31.5467 12.4396 28.2213 11.5567 23.2503C11.5092 22.9796 11.4727 22.7071 11.4503 22.4401L11.2292 19.6V16.4032C12.2574 15.752 14.4814 14.0394 14.8953 11.1999H26.2295ZM9.36246 16.8H9.36443L9.3653 19.6719L9.43171 20.5333H9.36246C8.33302 20.5333 7.49576 19.6961 7.49576 18.6666C7.49576 17.6372 8.33302 16.8 9.36246 16.8ZM12.9963 11.1999C12.7247 12.4555 11.9424 13.4148 11.2292 14.0597V11.1334C11.534 11.1772 11.8457 11.1999 12.1625 11.1999H12.9963ZM31.7625 19.6V16.8C32.7919 16.8 33.6292 17.6372 33.6292 18.6667C33.6292 19.6961 32.792 20.5334 31.7625 20.5334H31.6912L31.7625 19.6ZM7.59004 5.6C8.02316 7.72702 9.90944 9.3333 12.1625 9.3333V9.33341H29.8435C29.3778 5.13898 25.8125 1.8667 21.4958 1.8667H8.42905C8.42905 2.89625 9.26632 3.73341 10.2958 3.73341C10.8109 3.73341 11.2291 4.15155 11.2291 4.6667C11.2291 5.18186 10.8109 5.6 10.2958 5.6H7.59004ZM16.8292 17.7333C16.8292 18.7642 15.9934 19.6 14.9625 19.6C13.9315 19.6 13.0958 18.7642 13.0958 17.7333C13.0958 16.7023 13.9315 15.8666 14.9625 15.8666C15.9934 15.8666 16.8292 16.7023 16.8292 17.7333ZM26.1625 19.6C27.1934 19.6 28.0292 18.7642 28.0292 17.7333C28.0292 16.7023 27.1934 15.8666 26.1625 15.8666C25.1315 15.8666 24.2958 16.7023 24.2958 17.7333C24.2958 18.7642 25.1315 19.6 26.1625 19.6ZM20.0743 20.5333L21.4286 17.1472L19.6954 16.4537L17.8287 21.1204C17.7139 21.4079 17.7494 21.7346 17.923 21.9903C18.0966 22.246 18.386 22.4 18.6959 22.4H21.4959V20.5333H20.0743ZM18.8545 24.2667C20.3076 24.2657 21.674 23.7001 22.7026 22.6726L24.0223 23.9933C22.6419 25.3727 20.806 26.1324 18.8545 26.1334H18.6958V24.2667H18.8545ZM10.2959 47.6C10.2959 47.0839 10.714 46.6667 11.2292 46.6667C11.7443 46.6667 12.1625 47.0839 12.1625 47.6V53.2C12.1625 53.7161 11.7443 54.1333 11.2292 54.1333C10.714 54.1333 10.2959 53.7161 10.2959 53.2V47.6ZM28.9625 47.6C28.9625 47.0839 29.3796 46.6667 29.8958 46.6667C30.4119 46.6667 30.8292 47.0839 30.8291 47.6V53.2C30.8291 53.7161 30.4119 54.1333 29.8958 54.1333C29.3796 54.1333 28.9625 53.7161 28.9625 53.2V47.6Z" fill="#79C8C7"/>
</svg>
